<svg xmlns="http://www.w3.org/2000/svg" version="1.1" xmlns:xlink="http://www.w3.org/1999/xlink" xmlns:svgjs="http://svgjs.dev/svgjs" width="1440" height="560" preserveAspectRatio="none" viewBox="0 0 1440 560">
    <g mask="url(&quot;#SvgjsMask1002&quot;)" fill="none">
        <rect width="1440" height="560" x="0" y="0" fill="rgba(237, 242, 250, 1)"></rect>
        <path d="M477.22 200.79L477.22 204.51L504.39 204.51L504.39 200.79zM497.79 202.65 a6.6 6.6 0 1 0 13.2 0 a6.6 6.6 0 1 0 -13.2 0zM472.52 228.16L471.09 231.61L487.58 238.43L489 234.99zM481.69 236.71 a6.6 6.6 0 1 0 13.2 0 a6.6 6.6 0 1 0 -13.2 0zM457.7 251.66L455.06 254.29L477.4 276.63L480.04 273.99zM472.12 275.31 a6.6 6.6 0 1 0 13.2 0 a6.6 6.6 0 1 0 -13.2 0zM435.01 267.69L431.57 269.11L438.11 284.91L441.56 283.49zM433.23 284.2 a6.6 6.6 0 1 0 13.2 0 a6.6 6.6 0 1 0 -13.2 0zM407.92 273.82L404.19 273.82L404.19 301.58L407.92 301.58zM399.46 301.58 a6.6 6.6 0 1 0 13.2 0 a6.6 6.6 0 1 0 -13.2 0zM380.54 269.11L377.1 267.69L363.98 299.36L367.42 300.79zM359.1 300.07 a6.6 6.6 0 1 0 13.2 0 a6.6 6.6 0 1 0 -13.2 0zM357.05 254.29L354.41 251.66L339.66 266.41L342.29 269.05zM334.37 267.73 a6.6 6.6 0 1 0 13.2 0 a6.6 6.6 0 1 0 -13.2 0zM341.02 231.61L339.59 228.16L309.68 240.55L311.11 243.99zM303.8 242.27 a6.6 6.6 0 1 0 13.2 0 a6.6 6.6 0 1 0 -13.2 0zM334.89 204.51L334.89 200.79L304.73 200.79L304.73 204.51zM298.13 202.65 a6.6 6.6 0 1 0 13.2 0 a6.6 6.6 0 1 0 -13.2 0zM339.59 177.14L341.02 173.69L322.42 165.99L320.99 169.43zM315.11 167.71 a6.6 6.6 0 1 0 13.2 0 a6.6 6.6 0 1 0 -13.2 0zM354.41 153.64L357.05 151.01L340.67 134.63L338.04 137.27zM332.75 135.95 a6.6 6.6 0 1 0 13.2 0 a6.6 6.6 0 1 0 -13.2 0zM377.1 137.61L380.54 136.18L376.52 126.48L373.08 127.91zM368.2 127.2 a6.6 6.6 0 1 0 13.2 0 a6.6 6.6 0 1 0 -13.2 0zM404.19 131.48L407.92 131.48L407.92 111.38L404.19 111.38zM399.46 111.38 a6.6 6.6 0 1 0 13.2 0 a6.6 6.6 0 1 0 -13.2 0zM431.57 136.18L435.01 137.61L446.44 110.03L442.99 108.61zM438.11 109.32 a6.6 6.6 0 1 0 13.2 0 a6.6 6.6 0 1 0 -13.2 0zM455.06 151.01L457.7 153.64L481.86 129.48L479.22 126.85zM473.94 128.16 a6.6 6.6 0 1 0 13.2 0 a6.6 6.6 0 1 0 -13.2 0zM471.09 173.69L472.52 177.14L502.22 164.83L500.8 161.39zM494.91 163.11 a6.6 6.6 0 1 0 13.2 0 a6.6 6.6 0 1 0 -13.2 0zM334.87 202.65 a71.19 71.19 0 1 0 142.38 0 a71.19 71.19 0 1 0 -142.38 0z" fill="rgba(26, 115, 232, 1)"></path>
        <path d="M335.22 195.5 A70.1936 70.1936 0 0 1 447.54 144.79M447.54 144.79 A142.3872 142.3872 0 0 0 335.22 195.5" fill="#135cbc" fill-rule="nonzero"></path>
        <path d="M356.14 244.63 a14.24 14.24 0 1 0 28.48 0 a14.24 14.24 0 1 0 -28.48 0zM413.4 137.75 a4.98 4.98 0 1 0 9.96 0 a4.98 4.98 0 1 0 -9.96 0zM409.14 228.26 a14.24 14.24 0 1 0 28.48 0 a14.24 14.24 0 1 0 -28.48 0zM393.94 157.94 a7.12 7.12 0 1 0 14.24 0 a7.12 7.12 0 1 0 -14.24 0zM386.61 191.12 a11.39 11.39 0 1 0 22.78 0 a11.39 11.39 0 1 0 -22.78 0zM453.7 232.29 a7.83 7.83 0 1 0 15.66 0 a7.83 7.83 0 1 0 -15.66 0zM438.41 148.4 a4.98 4.98 0 1 0 9.96 0 a4.98 4.98 0 1 0 -9.96 0zM459.87 180.33 a6.41 6.41 0 1 0 12.82 0 a6.41 6.41 0 1 0 -12.82 0zM426.76 179.62 a9.26 9.26 0 1 0 18.52 0 a9.26 9.26 0 1 0 -18.52 0zM395.39 260.21 a6.41 6.41 0 1 0 12.82 0 a6.41 6.41 0 1 0 -12.82 0z" fill="#135cbc" fill-rule="nonzero"></path>
        <path d="M1401.03 306.02L1401.03 309.28L1428.1 309.28L1428.1 306.02zM1422.32 307.65 a5.78 5.78 0 1 0 11.56 0 a5.78 5.78 0 1 0 -11.56 0zM1396.91 329.97L1395.66 332.98L1419.45 342.83L1420.69 339.82zM1414.29 341.33 a5.78 5.78 0 1 0 11.56 0 a5.78 5.78 0 1 0 -11.56 0zM1383.94 350.53L1381.64 352.83L1393.68 364.88L1395.98 362.57zM1389.05 363.72 a5.78 5.78 0 1 0 11.56 0 a5.78 5.78 0 1 0 -11.56 0zM1364.09 364.56L1361.08 365.8L1368.87 384.6L1371.88 383.36zM1364.59 383.98 a5.78 5.78 0 1 0 11.56 0 a5.78 5.78 0 1 0 -11.56 0zM1340.39 369.92L1337.12 369.92L1337.12 391.55L1340.39 391.55zM1332.98 391.55 a5.78 5.78 0 1 0 11.56 0 a5.78 5.78 0 1 0 -11.56 0zM1316.43 365.8L1313.42 364.56L1306.97 380.13L1309.98 381.38zM1302.69 380.76 a5.78 5.78 0 1 0 11.56 0 a5.78 5.78 0 1 0 -11.56 0zM1295.87 352.83L1293.57 350.53L1280.66 363.43L1282.97 365.74zM1276.04 364.58 a5.78 5.78 0 1 0 11.56 0 a5.78 5.78 0 1 0 -11.56 0zM1281.85 332.98L1280.6 329.97L1262.44 337.49L1263.69 340.5zM1257.29 339 a5.78 5.78 0 1 0 11.56 0 a5.78 5.78 0 1 0 -11.56 0zM1276.48 309.28L1276.48 306.02L1255.67 306.02L1255.67 309.28zM1249.89 307.65 a5.78 5.78 0 1 0 11.56 0 a5.78 5.78 0 1 0 -11.56 0zM1280.6 285.32L1281.85 282.31L1259.1 272.89L1257.85 275.9zM1252.7 274.39 a5.78 5.78 0 1 0 11.56 0 a5.78 5.78 0 1 0 -11.56 0zM1293.57 264.77L1295.87 262.46L1280.67 247.25L1278.36 249.56zM1273.73 248.4 a5.78 5.78 0 1 0 11.56 0 a5.78 5.78 0 1 0 -11.56 0zM1313.42 250.74L1316.43 249.49L1307.61 228.2L1304.6 229.45zM1300.33 228.83 a5.78 5.78 0 1 0 11.56 0 a5.78 5.78 0 1 0 -11.56 0zM1337.12 245.37L1340.39 245.37L1340.39 230.54L1337.12 230.54zM1332.98 230.54 a5.78 5.78 0 1 0 11.56 0 a5.78 5.78 0 1 0 -11.56 0zM1361.08 249.49L1364.09 250.74L1371.14 233.73L1368.13 232.48zM1363.85 233.1 a5.78 5.78 0 1 0 11.56 0 a5.78 5.78 0 1 0 -11.56 0zM1381.64 262.46L1383.94 264.77L1404.73 243.98L1402.43 241.67zM1397.8 242.82 a5.78 5.78 0 1 0 11.56 0 a5.78 5.78 0 1 0 -11.56 0zM1395.66 282.31L1396.91 285.32L1420.81 275.42L1419.57 272.41zM1414.41 273.92 a5.78 5.78 0 1 0 11.56 0 a5.78 5.78 0 1 0 -11.56 0zM1276.47 307.65 a62.29 62.29 0 1 0 124.58 0 a62.29 62.29 0 1 0 -124.58 0z" fill="rgba(26, 115, 232, 1)"></path>
        <path d="M1305.79 360.5 A61.294399999999996 61.294399999999996 0 0 1 1309.35 252.73M1309.35 252.73 A124.58879999999999 124.58879999999999 0 0 0 1305.79 360.5" fill="#135cbc" fill-rule="nonzero"></path>
        <path d="M1348.53 303.16 a12.46 12.46 0 1 0 24.92 0 a12.46 12.46 0 1 0 -24.92 0zM1339.12 325.55 a3.74 3.74 0 1 0 7.48 0 a3.74 3.74 0 1 0 -7.48 0zM1311.37 297.1 a12.46 12.46 0 1 0 24.92 0 a12.46 12.46 0 1 0 -24.92 0zM1392.58 291.5 a3.11 3.11 0 1 0 6.22 0 a3.11 3.11 0 1 0 -6.22 0zM1376.68 273.53 a6.23 6.23 0 1 0 12.46 0 a6.23 6.23 0 1 0 -12.46 0zM1309.57 260.81 a11.21 11.21 0 1 0 22.42 0 a11.21 11.21 0 1 0 -22.42 0zM1289.43 271.36 a4.36 4.36 0 1 0 8.72 0 a4.36 4.36 0 1 0 -8.72 0zM1352.74 343.52 a9.97 9.97 0 1 0 19.94 0 a9.97 9.97 0 1 0 -19.94 0zM1278.13 296.82 a8.72 8.72 0 1 0 17.44 0 a8.72 8.72 0 1 0 -17.44 0zM1286.77 337.52 a12.46 12.46 0 1 0 24.92 0 a12.46 12.46 0 1 0 -24.92 0z" fill="#135cbc" fill-rule="nonzero"></path>
        <path d="M360.81 442.13L360.81 443.99L367.65 443.99L367.65 442.13zM364.35 443.06 a3.3 3.3 0 1 0 6.6 0 a3.3 3.3 0 1 0 -6.6 0zM358.46 455.82L357.75 457.54L362.38 459.45L363.09 457.73zM359.43 458.59 a3.3 3.3 0 1 0 6.6 0 a3.3 3.3 0 1 0 -6.6 0zM351.05 467.56L349.73 468.88L354.26 473.4L355.58 472.09zM351.62 472.75 a3.3 3.3 0 1 0 6.6 0 a3.3 3.3 0 1 0 -6.6 0zM339.71 475.58L337.99 476.29L340.44 482.21L342.16 481.5zM338 481.86 a3.3 3.3 0 1 0 6.6 0 a3.3 3.3 0 1 0 -6.6 0zM326.16 478.64L324.3 478.64L324.3 483.63L326.16 483.63zM321.93 483.63 a3.3 3.3 0 1 0 6.6 0 a3.3 3.3 0 1 0 -6.6 0zM312.47 476.29L310.75 475.58L307.73 482.87L309.45 483.58zM305.29 483.22 a3.3 3.3 0 1 0 6.6 0 a3.3 3.3 0 1 0 -6.6 0zM300.73 468.88L299.41 467.56L294.52 472.45L295.84 473.77zM291.88 473.11 a3.3 3.3 0 1 0 6.6 0 a3.3 3.3 0 1 0 -6.6 0zM292.71 457.54L292 455.82L276.64 462.18L277.36 463.9zM273.7 463.04 a3.3 3.3 0 1 0 6.6 0 a3.3 3.3 0 1 0 -6.6 0zM289.65 443.99L289.65 442.13L278.87 442.13L278.87 443.99zM275.57 443.06 a3.3 3.3 0 1 0 6.6 0 a3.3 3.3 0 1 0 -6.6 0zM292 430.3L292.71 428.58L281.34 423.87L280.62 425.59zM277.68 424.73 a3.3 3.3 0 1 0 6.6 0 a3.3 3.3 0 1 0 -6.6 0zM299.41 418.56L300.73 417.24L292.52 409.03L291.21 410.35zM288.57 409.69 a3.3 3.3 0 1 0 6.6 0 a3.3 3.3 0 1 0 -6.6 0zM310.75 410.54L312.47 409.83L310.38 404.78L308.66 405.49zM306.22 405.14 a3.3 3.3 0 1 0 6.6 0 a3.3 3.3 0 1 0 -6.6 0zM324.3 407.47L326.16 407.47L326.16 392.85L324.3 392.85zM321.93 392.85 a3.3 3.3 0 1 0 6.6 0 a3.3 3.3 0 1 0 -6.6 0zM337.99 409.83L339.71 410.54L344.11 399.91L342.39 399.2zM339.95 399.56 a3.3 3.3 0 1 0 6.6 0 a3.3 3.3 0 1 0 -6.6 0zM349.73 417.24L351.05 418.56L355.87 413.74L354.55 412.42zM351.91 413.08 a3.3 3.3 0 1 0 6.6 0 a3.3 3.3 0 1 0 -6.6 0zM357.75 428.58L358.46 430.3L363.22 428.33L362.51 426.61zM359.56 427.47 a3.3 3.3 0 1 0 6.6 0 a3.3 3.3 0 1 0 -6.6 0zM289.63 443.06 a35.6 35.6 0 1 0 71.2 0 a35.6 35.6 0 1 0 -71.2 0z" fill="rgba(26, 115, 232, 1)"></path>
        <path d="M358.42 430.2 A34.5968 34.5968 0 0 1 319.84 478.24M319.84 478.24 A71.1936 71.1936 0 0 0 358.42 430.2" fill="#135cbc" fill-rule="nonzero"></path>
        <path d="M326.59 443.18 a7.12 7.12 0 1 0 14.24 0 a7.12 7.12 0 1 0 -14.24 0zM302.66 421.59 a7.12 7.12 0 1 0 14.24 0 a7.12 7.12 0 1 0 -14.24 0zM339.28 472.6 a1.78 1.78 0 1 0 3.56 0 a1.78 1.78 0 1 0 -3.56 0zM349.4 460.16 a3.2 3.2 0 1 0 6.4 0 a3.2 3.2 0 1 0 -6.4 0zM349.91 421.41 a1.42 1.42 0 1 0 2.84 0 a1.42 1.42 0 1 0 -2.84 0zM314.75 469.95 a7.12 7.12 0 1 0 14.24 0 a7.12 7.12 0 1 0 -14.24 0zM295.79 460.99 a6.05 6.05 0 1 0 12.1 0 a6.05 6.05 0 1 0 -12.1 0zM355.27 438.36 a2.49 2.49 0 1 0 4.98 0 a2.49 2.49 0 1 0 -4.98 0zM302.99 440.92 a4.98 4.98 0 1 0 9.96 0 a4.98 4.98 0 1 0 -9.96 0zM322.01 413.45 a2.49 2.49 0 1 0 4.98 0 a2.49 2.49 0 1 0 -4.98 0z" fill="#135cbc" fill-rule="nonzero"></path>
        <path d="M1041.82 186.57L1041.82 190.3L1071.57 190.3L1071.57 186.57zM1064.97 188.43 a6.6 6.6 0 1 0 13.2 0 a6.6 6.6 0 1 0 -13.2 0zM1037.11 213.95L1035.69 217.39L1066.67 230.22L1068.09 226.78zM1060.78 228.5 a6.6 6.6 0 1 0 13.2 0 a6.6 6.6 0 1 0 -13.2 0zM1022.29 237.44L1019.66 240.08L1041.35 261.77L1043.98 259.14zM1036.07 260.45 a6.6 6.6 0 1 0 13.2 0 a6.6 6.6 0 1 0 -13.2 0zM999.61 253.47L996.16 254.9L1003.43 272.43L1006.87 271.01zM998.55 271.72 a6.6 6.6 0 1 0 13.2 0 a6.6 6.6 0 1 0 -13.2 0zM972.51 259.6L968.79 259.6L968.79 284.53L972.51 284.53zM964.05 284.53 a6.6 6.6 0 1 0 13.2 0 a6.6 6.6 0 1 0 -13.2 0zM945.14 254.9L941.69 253.47L932.09 276.64L935.54 278.07zM927.22 277.36 a6.6 6.6 0 1 0 13.2 0 a6.6 6.6 0 1 0 -13.2 0zM921.64 240.08L919.01 237.44L899.24 257.2L901.88 259.84zM893.96 258.52 a6.6 6.6 0 1 0 13.2 0 a6.6 6.6 0 1 0 -13.2 0zM905.61 217.39L904.18 213.95L886.58 221.24L888.01 224.68zM880.7 222.96 a6.6 6.6 0 1 0 13.2 0 a6.6 6.6 0 1 0 -13.2 0zM899.48 190.3L899.48 186.57L872.1 186.57L872.1 190.3zM865.5 188.43 a6.6 6.6 0 1 0 13.2 0 a6.6 6.6 0 1 0 -13.2 0zM904.18 162.92L905.61 159.48L891.35 153.57L889.92 157.01zM884.03 155.29 a6.6 6.6 0 1 0 13.2 0 a6.6 6.6 0 1 0 -13.2 0zM919.01 139.43L921.64 136.79L906.33 121.48L903.7 124.12zM898.42 122.8 a6.6 6.6 0 1 0 13.2 0 a6.6 6.6 0 1 0 -13.2 0zM941.69 123.4L945.14 121.97L934.48 96.25L931.04 97.68zM926.16 96.96 a6.6 6.6 0 1 0 13.2 0 a6.6 6.6 0 1 0 -13.2 0zM968.79 117.27L972.51 117.27L972.51 107.77L968.79 107.77zM964.05 107.77 a6.6 6.6 0 1 0 13.2 0 a6.6 6.6 0 1 0 -13.2 0zM996.16 121.97L999.61 123.4L1011.75 94.08L1008.3 92.66zM1003.43 93.37 a6.6 6.6 0 1 0 13.2 0 a6.6 6.6 0 1 0 -13.2 0zM1019.66 136.79L1022.29 139.43L1030.5 131.22L1027.86 128.58zM1022.58 129.9 a6.6 6.6 0 1 0 13.2 0 a6.6 6.6 0 1 0 -13.2 0zM1035.69 159.48L1037.11 162.92L1063.27 152.09L1061.84 148.64zM1055.96 150.37 a6.6 6.6 0 1 0 13.2 0 a6.6 6.6 0 1 0 -13.2 0zM899.46 188.43 a71.19 71.19 0 1 0 142.38 0 a71.19 71.19 0 1 0 -142.38 0z" fill="rgba(26, 115, 232, 1)"></path>
        <path d="M1041.56 194.75 A70.1936 70.1936 0 0 1 929.84 246.77M929.84 246.77 A142.3872 142.3872 0 0 0 1041.56 194.75" fill="#135cbc" fill-rule="nonzero"></path>
        <path d="M989.85 235.19 a13.53 13.53 0 1 0 27.06 0 a13.53 13.53 0 1 0 -27.06 0zM996.07 180 a14.24 14.24 0 1 0 28.48 0 a14.24 14.24 0 1 0 -28.48 0zM936.31 207.88 a14.24 14.24 0 1 0 28.48 0 a14.24 14.24 0 1 0 -28.48 0zM950.15 140.08 a14.24 14.24 0 1 0 28.48 0 a14.24 14.24 0 1 0 -28.48 0zM905.49 160.57 a3.56 3.56 0 1 0 7.12 0 a3.56 3.56 0 1 0 -7.12 0zM910.79 183.49 a5.7 5.7 0 1 0 11.4 0 a5.7 5.7 0 1 0 -11.4 0zM979.29 204.45 a3.56 3.56 0 1 0 7.12 0 a3.56 3.56 0 1 0 -7.12 0zM965.32 235.12 a4.98 4.98 0 1 0 9.96 0 a4.98 4.98 0 1 0 -9.96 0zM934.91 172.87 a7.12 7.12 0 1 0 14.24 0 a7.12 7.12 0 1 0 -14.24 0zM992.67 145.64 a7.12 7.12 0 1 0 14.24 0 a7.12 7.12 0 1 0 -14.24 0z" fill="#135cbc" fill-rule="nonzero"></path>
        <path d="M862.52 392.42L862.52 394.28L878.25 394.28L878.25 392.42zM874.95 393.35 a3.3 3.3 0 1 0 6.6 0 a3.3 3.3 0 1 0 -6.6 0zM860.17 406.11L859.46 407.83L875 414.27L875.72 412.55zM872.06 413.41 a3.3 3.3 0 1 0 6.6 0 a3.3 3.3 0 1 0 -6.6 0zM852.76 417.85L851.44 419.17L857.11 424.84L858.43 423.52zM854.47 424.18 a3.3 3.3 0 1 0 6.6 0 a3.3 3.3 0 1 0 -6.6 0zM841.41 425.87L839.69 426.58L844.98 439.34L846.7 438.63zM842.54 438.99 a3.3 3.3 0 1 0 6.6 0 a3.3 3.3 0 1 0 -6.6 0zM827.87 428.94L826 428.94L826 440.33L827.87 440.33zM823.64 440.33 a3.3 3.3 0 1 0 6.6 0 a3.3 3.3 0 1 0 -6.6 0zM814.18 426.58L812.46 425.87L809.28 433.54L811 434.25zM806.84 433.89 a3.3 3.3 0 1 0 6.6 0 a3.3 3.3 0 1 0 -6.6 0zM802.43 419.17L801.11 417.85L796.98 421.99L798.3 423.31zM794.34 422.65 a3.3 3.3 0 1 0 6.6 0 a3.3 3.3 0 1 0 -6.6 0zM794.42 407.83L793.7 406.11L780.24 411.68L780.96 413.4zM777.3 412.54 a3.3 3.3 0 1 0 6.6 0 a3.3 3.3 0 1 0 -6.6 0zM791.35 394.28L791.35 392.42L778.16 392.42L778.16 394.28zM774.86 393.35 a3.3 3.3 0 1 0 6.6 0 a3.3 3.3 0 1 0 -6.6 0zM793.7 380.59L794.42 378.87L788.78 376.54L788.07 378.26zM785.12 377.4 a3.3 3.3 0 1 0 6.6 0 a3.3 3.3 0 1 0 -6.6 0zM801.11 368.85L802.43 367.53L796.85 361.95L795.54 363.27zM792.89 362.61 a3.3 3.3 0 1 0 6.6 0 a3.3 3.3 0 1 0 -6.6 0zM812.46 360.83L814.18 360.12L809.98 349.98L808.26 350.7zM805.82 350.34 a3.3 3.3 0 1 0 6.6 0 a3.3 3.3 0 1 0 -6.6 0zM826 357.77L827.87 357.77L827.87 351.54L826 351.54zM823.64 351.54 a3.3 3.3 0 1 0 6.6 0 a3.3 3.3 0 1 0 -6.6 0zM839.69 360.12L841.41 360.83L843.61 355.52L841.89 354.81zM839.45 355.16 a3.3 3.3 0 1 0 6.6 0 a3.3 3.3 0 1 0 -6.6 0zM851.44 367.53L852.76 368.85L864.64 356.96L863.33 355.64zM860.68 356.3 a3.3 3.3 0 1 0 6.6 0 a3.3 3.3 0 1 0 -6.6 0zM859.46 378.87L860.17 380.59L867.61 377.51L866.89 375.79zM863.95 376.65 a3.3 3.3 0 1 0 6.6 0 a3.3 3.3 0 1 0 -6.6 0zM791.34 393.35 a35.6 35.6 0 1 0 71.2 0 a35.6 35.6 0 1 0 -71.2 0z" fill="rgba(26, 115, 232, 1)"></path>
        <path d="M809.41 362.37 A34.5968 34.5968 0 0 1 862.53 393.59M862.53 393.59 A71.1936 71.1936 0 0 0 809.41 362.37" fill="#135cbc" fill-rule="nonzero"></path>
        <path d="M829.47 410.86 a7.12 7.12 0 1 0 14.24 0 a7.12 7.12 0 1 0 -14.24 0zM804.83 405.03 a7.12 7.12 0 1 0 14.24 0 a7.12 7.12 0 1 0 -14.24 0zM837.6 388.07 a7.12 7.12 0 1 0 14.24 0 a7.12 7.12 0 1 0 -14.24 0zM806.04 365.4 a1.42 1.42 0 1 0 2.84 0 a1.42 1.42 0 1 0 -2.84 0zM792.53 401.44 a2.49 2.49 0 1 0 4.98 0 a2.49 2.49 0 1 0 -4.98 0zM817.68 375.24 a7.12 7.12 0 1 0 14.24 0 a7.12 7.12 0 1 0 -14.24 0zM801.15 385.63 a5.7 5.7 0 1 0 11.4 0 a5.7 5.7 0 1 0 -11.4 0zM850.62 407.14 a3.2 3.2 0 1 0 6.4 0 a3.2 3.2 0 1 0 -6.4 0zM808.57 422.14 a2.49 2.49 0 1 0 4.98 0 a2.49 2.49 0 1 0 -4.98 0zM855.4 377.49 a1.42 1.42 0 1 0 2.84 0 a1.42 1.42 0 1 0 -2.84 0z" fill="#135cbc" fill-rule="nonzero"></path>
        <path d="M153.19 234.98L153.19 237.78L173.66 237.78L173.66 234.98zM168.71 236.38 a4.95 4.95 0 1 0 9.9 0 a4.95 4.95 0 1 0 -9.9 0zM149.66 255.51L148.59 258.1L159.66 262.69L160.73 260.1zM155.25 261.39 a4.95 4.95 0 1 0 9.9 0 a4.95 4.95 0 1 0 -9.9 0zM138.54 273.13L136.56 275.11L152.25 290.79L154.22 288.82zM148.28 289.81 a4.95 4.95 0 1 0 9.9 0 a4.95 4.95 0 1 0 -9.9 0zM121.53 285.16L118.94 286.23L126.35 304.11L128.93 303.04zM122.69 303.58 a4.95 4.95 0 1 0 9.9 0 a4.95 4.95 0 1 0 -9.9 0zM101.21 289.76L98.41 289.76L98.41 301.42L101.21 301.42zM94.86 301.42 a4.95 4.95 0 1 0 9.9 0 a4.95 4.95 0 1 0 -9.9 0zM80.67 286.23L78.09 285.16L72.03 299.78L74.62 300.85zM68.37 300.32 a4.95 4.95 0 1 0 9.9 0 a4.95 4.95 0 1 0 -9.9 0zM63.05 275.11L61.08 273.13L53.52 280.69L55.49 282.67zM49.56 281.68 a4.95 4.95 0 1 0 9.9 0 a4.95 4.95 0 1 0 -9.9 0zM51.03 258.1L49.96 255.51L35.46 261.52L36.53 264.1zM31.05 262.81 a4.95 4.95 0 1 0 9.9 0 a4.95 4.95 0 1 0 -9.9 0zM46.43 237.78L46.43 234.98L24.93 234.98L24.93 237.78zM19.98 236.38 a4.95 4.95 0 1 0 9.9 0 a4.95 4.95 0 1 0 -9.9 0zM49.96 217.24L51.03 214.66L32.43 206.96L31.36 209.54zM26.95 208.25 a4.95 4.95 0 1 0 9.9 0 a4.95 4.95 0 1 0 -9.9 0zM61.08 199.62L63.05 197.65L48.95 183.55L46.98 185.52zM43.02 184.54 a4.95 4.95 0 1 0 9.9 0 a4.95 4.95 0 1 0 -9.9 0zM78.09 187.6L80.67 186.53L72.94 167.87L70.36 168.94zM66.7 168.4 a4.95 4.95 0 1 0 9.9 0 a4.95 4.95 0 1 0 -9.9 0zM98.41 183L101.21 183L101.21 174.03L98.41 174.03zM94.86 174.03 a4.95 4.95 0 1 0 9.9 0 a4.95 4.95 0 1 0 -9.9 0zM118.94 186.53L121.53 187.6L124.42 180.61L121.84 179.54zM118.18 180.07 a4.95 4.95 0 1 0 9.9 0 a4.95 4.95 0 1 0 -9.9 0zM136.56 197.65L138.54 199.62L150.64 187.53L148.66 185.55zM144.7 186.54 a4.95 4.95 0 1 0 9.9 0 a4.95 4.95 0 1 0 -9.9 0zM148.59 214.66L149.66 217.24L164.01 211.3L162.94 208.71zM158.53 210.01 a4.95 4.95 0 1 0 9.9 0 a4.95 4.95 0 1 0 -9.9 0zM46.41 236.38 a53.4 53.4 0 1 0 106.8 0 a53.4 53.4 0 1 0 -106.8 0z" fill="rgba(26, 115, 232, 1)"></path>
        <path d="M67.69 193.72 A52.3952 52.3952 0 0 1 152.79 229.78M152.79 229.78 A106.7904 106.7904 0 0 0 67.69 193.72" fill="#135cbc" fill-rule="nonzero"></path>
        <path d="M121.75 251.07 a10.68 10.68 0 1 0 21.36 0 a10.68 10.68 0 1 0 -21.36 0zM72.02 233.6 a10.68 10.68 0 1 0 21.36 0 a10.68 10.68 0 1 0 -21.36 0zM68.16 271 a10.68 10.68 0 1 0 21.36 0 a10.68 10.68 0 1 0 -21.36 0zM99.46 278.71 a5.87 5.87 0 1 0 11.74 0 a5.87 5.87 0 1 0 -11.74 0zM99.37 187.06 a3.74 3.74 0 1 0 7.48 0 a3.74 3.74 0 1 0 -7.48 0zM59.1 213.88 a5.34 5.34 0 1 0 10.68 0 a5.34 5.34 0 1 0 -10.68 0zM46.9 237.93 a6.94 6.94 0 1 0 13.88 0 a6.94 6.94 0 1 0 -13.88 0zM75.56 193.38 a6.94 6.94 0 1 0 13.88 0 a6.94 6.94 0 1 0 -13.88 0zM131.49 220.28 a9.08 9.08 0 1 0 18.16 0 a9.08 9.08 0 1 0 -18.16 0zM110.47 226.59 a5.34 5.34 0 1 0 10.68 0 a5.34 5.34 0 1 0 -10.68 0z" fill="#135cbc" fill-rule="nonzero"></path>
        <path d="M658.38 393.9L658.38 396.23L677.04 396.23L677.04 393.9zM672.91 395.06 a4.13 4.13 0 1 0 8.26 0 a4.13 4.13 0 1 0 -8.26 0zM655.44 411.01L654.55 413.16L663.86 417.02L664.75 414.87zM660.18 415.94 a4.13 4.13 0 1 0 8.26 0 a4.13 4.13 0 1 0 -8.26 0zM646.17 425.69L644.53 427.34L658.12 440.93L659.77 439.28zM654.81 440.11 a4.13 4.13 0 1 0 8.26 0 a4.13 4.13 0 1 0 -8.26 0zM632 435.71L629.84 436.61L635.21 449.55L637.36 448.66zM632.15 449.1 a4.13 4.13 0 1 0 8.26 0 a4.13 4.13 0 1 0 -8.26 0zM615.06 439.55L612.73 439.55L612.73 455.4L615.06 455.4zM609.77 455.4 a4.13 4.13 0 1 0 8.26 0 a4.13 4.13 0 1 0 -8.26 0zM597.95 436.61L595.8 435.71L587.39 456.02L589.54 456.91zM584.33 456.47 a4.13 4.13 0 1 0 8.26 0 a4.13 4.13 0 1 0 -8.26 0zM583.27 427.34L581.62 425.69L572.71 434.6L574.36 436.25zM569.41 435.43 a4.13 4.13 0 1 0 8.26 0 a4.13 4.13 0 1 0 -8.26 0zM573.25 413.16L572.36 411.01L553.19 418.95L554.08 421.1zM549.5 420.03 a4.13 4.13 0 1 0 8.26 0 a4.13 4.13 0 1 0 -8.26 0zM569.42 396.23L569.42 393.9L550.48 393.9L550.48 396.23zM546.35 395.06 a4.13 4.13 0 1 0 8.26 0 a4.13 4.13 0 1 0 -8.26 0zM572.36 379.12L573.25 376.97L557.81 370.57L556.92 372.72zM553.24 371.65 a4.13 4.13 0 1 0 8.26 0 a4.13 4.13 0 1 0 -8.26 0zM581.62 364.44L583.27 362.79L576.88 356.4L575.24 358.05zM571.93 357.23 a4.13 4.13 0 1 0 8.26 0 a4.13 4.13 0 1 0 -8.26 0zM595.8 354.42L597.95 353.52L589.89 334.07L587.74 334.96zM584.69 334.51 a4.13 4.13 0 1 0 8.26 0 a4.13 4.13 0 1 0 -8.26 0zM612.73 350.58L615.06 350.58L615.06 331.8L612.73 331.8zM609.77 331.8 a4.13 4.13 0 1 0 8.26 0 a4.13 4.13 0 1 0 -8.26 0zM629.84 353.52L632 354.42L639.67 335.9L637.51 335.01zM634.46 335.46 a4.13 4.13 0 1 0 8.26 0 a4.13 4.13 0 1 0 -8.26 0zM644.53 362.79L646.17 364.44L653.83 356.79L652.18 355.14zM648.87 355.96 a4.13 4.13 0 1 0 8.26 0 a4.13 4.13 0 1 0 -8.26 0zM654.55 376.97L655.44 379.12L665.6 374.91L664.71 372.76zM661.03 373.83 a4.13 4.13 0 1 0 8.26 0 a4.13 4.13 0 1 0 -8.26 0zM569.4 395.06 a44.5 44.5 0 1 0 89 0 a44.5 44.5 0 1 0 -89 0z" fill="rgba(26, 115, 232, 1)"></path>
        <path d="M607.51 351.03 A43.496 43.496 0 0 1 655.26 411.47M655.26 411.47 A88.992 88.992 0 0 0 607.51 351.03" fill="#135cbc" fill-rule="nonzero"></path>
        <path d="M592.32 388.69 a8.9 8.9 0 1 0 17.8 0 a8.9 8.9 0 1 0 -17.8 0zM588.85 360.47 a3.56 3.56 0 1 0 7.12 0 a3.56 3.56 0 1 0 -7.12 0zM637.58 382.3 a8.9 8.9 0 1 0 17.8 0 a8.9 8.9 0 1 0 -17.8 0zM612.78 425.54 a8.9 8.9 0 1 0 17.8 0 a8.9 8.9 0 1 0 -17.8 0zM574.2 375.51 a2.22 2.22 0 1 0 4.44 0 a2.22 2.22 0 1 0 -4.44 0zM576.2 414.32 a8.9 8.9 0 1 0 17.8 0 a8.9 8.9 0 1 0 -17.8 0zM617.66 356.87 a4.89 4.89 0 1 0 9.78 0 a4.89 4.89 0 1 0 -9.78 0zM641.93 421.68 a3.11 3.11 0 1 0 6.22 0 a3.11 3.11 0 1 0 -6.22 0zM604.1 355.47 a2.22 2.22 0 1 0 4.44 0 a2.22 2.22 0 1 0 -4.44 0zM624.17 397.19 a4.89 4.89 0 1 0 9.78 0 a4.89 4.89 0 1 0 -9.78 0z" fill="#135cbc" fill-rule="nonzero"></path>
        <path d="M1185.72 489.82L1185.72 491.69L1202.53 491.69L1202.53 489.82zM1199.23 490.75 a3.3 3.3 0 1 0 6.6 0 a3.3 3.3 0 1 0 -6.6 0zM1183.37 503.51L1182.66 505.23L1197.21 511.26L1197.92 509.54zM1194.26 510.4 a3.3 3.3 0 1 0 6.6 0 a3.3 3.3 0 1 0 -6.6 0zM1175.96 515.26L1174.64 516.57L1183.65 525.58L1184.97 524.27zM1181.01 524.92 a3.3 3.3 0 1 0 6.6 0 a3.3 3.3 0 1 0 -6.6 0zM1164.62 523.27L1162.89 523.99L1164.8 528.6L1166.53 527.88zM1162.37 528.24 a3.3 3.3 0 1 0 6.6 0 a3.3 3.3 0 1 0 -6.6 0zM1151.07 526.34L1149.21 526.34L1149.21 535.68L1151.07 535.68zM1146.84 535.68 a3.3 3.3 0 1 0 6.6 0 a3.3 3.3 0 1 0 -6.6 0zM1137.38 523.99L1135.66 523.27L1131.11 534.26L1132.83 534.97zM1128.67 534.61 a3.3 3.3 0 1 0 6.6 0 a3.3 3.3 0 1 0 -6.6 0zM1125.63 516.57L1124.32 515.26L1119.42 520.15L1120.74 521.47zM1116.78 520.81 a3.3 3.3 0 1 0 6.6 0 a3.3 3.3 0 1 0 -6.6 0zM1117.62 505.23L1116.91 503.51L1105.48 508.24L1106.19 509.97zM1102.53 509.1 a3.3 3.3 0 1 0 6.6 0 a3.3 3.3 0 1 0 -6.6 0zM1114.55 491.69L1114.55 489.82L1099.27 489.82L1099.27 491.69zM1095.97 490.75 a3.3 3.3 0 1 0 6.6 0 a3.3 3.3 0 1 0 -6.6 0zM1116.91 478L1117.62 476.27L1108.49 472.49L1107.78 474.22zM1104.83 473.35 a3.3 3.3 0 1 0 6.6 0 a3.3 3.3 0 1 0 -6.6 0zM1124.32 466.25L1125.63 464.93L1120.47 459.76L1119.15 461.08zM1116.51 460.42 a3.3 3.3 0 1 0 6.6 0 a3.3 3.3 0 1 0 -6.6 0zM1135.66 458.23L1137.38 457.52L1135.1 452.01L1133.37 452.72zM1130.94 452.36 a3.3 3.3 0 1 0 6.6 0 a3.3 3.3 0 1 0 -6.6 0zM1149.21 455.17L1151.07 455.17L1151.07 440.07L1149.21 440.07zM1146.84 440.07 a3.3 3.3 0 1 0 6.6 0 a3.3 3.3 0 1 0 -6.6 0zM1162.89 457.52L1164.62 458.23L1166.46 453.78L1164.74 453.07zM1162.3 453.42 a3.3 3.3 0 1 0 6.6 0 a3.3 3.3 0 1 0 -6.6 0zM1174.64 464.93L1175.96 466.25L1181.42 460.78L1180.11 459.47zM1177.47 460.13 a3.3 3.3 0 1 0 6.6 0 a3.3 3.3 0 1 0 -6.6 0zM1182.66 476.27L1183.37 478L1198.26 471.83L1197.55 470.11zM1194.61 470.97 a3.3 3.3 0 1 0 6.6 0 a3.3 3.3 0 1 0 -6.6 0zM1114.54 490.75 a35.6 35.6 0 1 0 71.2 0 a35.6 35.6 0 1 0 -71.2 0z" fill="rgba(26, 115, 232, 1)"></path>
        <path d="M1121 470.31 A34.5968 34.5968 0 0 1 1182.38 475.67M1182.38 475.67 A71.1936 71.1936 0 0 0 1121 470.31" fill="#135cbc" fill-rule="nonzero"></path>
        <path d="M1133.9 489.8 a7.12 7.12 0 1 0 14.24 0 a7.12 7.12 0 1 0 -14.24 0zM1152.31 499.83 a2.49 2.49 0 1 0 4.98 0 a2.49 2.49 0 1 0 -4.98 0zM1160.3 511.36 a7.12 7.12 0 1 0 14.24 0 a7.12 7.12 0 1 0 -14.24 0zM1142.95 470.63 a6.41 6.41 0 1 0 12.82 0 a6.41 6.41 0 1 0 -12.82 0zM1175.89 485.01 a4.63 4.63 0 1 0 9.26 0 a4.63 4.63 0 1 0 -9.26 0zM1125.31 467.55 a4.27 4.27 0 1 0 8.54 0 a4.27 4.27 0 1 0 -8.54 0zM1116.92 495.55 a5.34 5.34 0 1 0 10.68 0 a5.34 5.34 0 1 0 -10.68 0zM1136.46 519.83 a5.34 5.34 0 1 0 10.68 0 a5.34 5.34 0 1 0 -10.68 0zM1166.04 481.72 a1.42 1.42 0 1 0 2.84 0 a1.42 1.42 0 1 0 -2.84 0zM1165.87 468.58 a4.63 4.63 0 1 0 9.26 0 a4.63 4.63 0 1 0 -9.26 0z" fill="#135cbc" fill-rule="nonzero"></path>
    </g>
    <defs>
        <mask id="SvgjsMask1002">
            <rect width="1440" height="560" fill="#ffffff"></rect>
        </mask>
    </defs>
</svg>